GIL01_free4_ik
nRows=3
nColumns=375

# SIMM Motion File Header:
name GIL01_free4_ik
datacolumns 375
datarows 3
otherdata 1
range 0.67500000 0.69167000
endheader
time	pelvis_tx	pelvis_ty	pelvis_tz	pelvis_tilt	pelvis_list	pelvis_rotation	hip_flexion_r	hip_adduction_r	hip_rotation_r	knee_angle_r	ankle_angle_r	hip_flexion_l	hip_adduction_l	hip_rotation_l	knee_angle_l	ankle_angle_l	lumbar_extension	lumbar_bending	lumbar_rotation	subtalar_angle_r	mtp_angle_r	subtalar_angle_l	mtp_angle_l	asis_r_px	asis_r_py	asis_r_pz	asis_l_px	asis_l_py	asis_l_pz	midasis_px	midasis_py	midasis_pz	psis_r_px	psis_r_py	psis_r_pz	psis_l_px	psis_l_py	psis_l_pz	hip_r_px	hip_r_py	hip_r_pz	hip_l_px	hip_l_py	hip_l_pz	midhip_px	midhip_py	midhip_pz	epicondLat_r_px	epicondLat_r_py	epicondLat_r_pz	epicondMed_r_px	epicondMed_r_py	epicondMed_r_pz	thighwand_r_px	thighwand_r_py	thighwand_r_pz	upperleg1_r_px	upperleg1_r_py	upperleg1_r_pz	upperleg2_r_px	upperleg2_r_py	upperleg2_r_pz	malleolusLat_r_px	malleolusLat_r_py	malleolusLat_r_pz	malleolusMedv_r_px	malleolusMedv_r_py	malleolusMedv_r_pz	shankwand_r_px	shankwand_r_py	shankwand_r_pz	lowerleg1_r_px	lowerleg1_r_py	lowerleg1_r_pz	knee_r_px	knee_r_py	knee_r_pz	ankle_r_px	ankle_r_py	ankle_r_pz	toe_r_px	toe_r_py	toe_r_pz	epicondLat_l_px	epicondLat_l_py	epicondLat_l_pz	epicondMed_l_px	epicondMed_l_py	epicondMed_l_pz	thighwand_l_px	thighwand_l_py	thighwand_l_pz	upperleg1_l_px	upperleg1_l_py	upperleg1_l_pz	upperleg2_l_px	upperleg2_l_py	upperleg2_l_pz	malleolusLat_l_px	malleolusLat_l_py	malleolusLat_l_pz	malleolusMedv_l_px	malleolusMedv_l_py	malleolusMedv_l_pz	shankwand_l_px	shankwand_l_py	shankwand_l_pz	lowerleg1_l_px	lowerleg1_l_py	lowerleg1_l_pz	knee_l_px	knee_l_py	knee_l_pz	ankle_l_px	ankle_l_py	ankle_l_pz	toe_l_px	toe_l_py	toe_l_pz	subclavicle_r_px	subclavicle_r_py	subclavicle_r_pz	subclavicle_l_px	subclavicle_l_py	subclavicle_l_pz	neck_px	neck_py	neck_pz	sternalnotch_px	sternalnotch_py	sternalnotch_pz	xyphoidprocess_px	xyphoidprocess_py	xyphoidprocess_pz	midhip_tx	midhip_ty	midhip_tz	hip_r_tx	hip_r_ty	hip_r_tz	hip_l_tx	hip_l_ty	hip_l_tz	knee_r_tx	knee_r_ty	knee_r_tz	knee_l_tx	knee_l_ty	knee_l_tz	ankle_r_tx	ankle_r_ty	ankle_r_tz	ankle_l_tx	ankle_l_ty	ankle_l_tz	midasis_tx	midasis_ty	midasis_tz	asis_r_tx	asis_r_ty	asis_r_tz	asis_l_tx	asis_l_ty	asis_l_tz	psis_r_tx	psis_r_ty	psis_r_tz	psis_l_tx	psis_l_ty	psis_l_tz	epicondLat_r_tx	epicondLat_r_ty	epicondLat_r_tz	epicondLat_l_tx	epicondLat_l_ty	epicondLat_l_tz	epicondMed_r_tx	epicondMed_r_ty	epicondMed_r_tz	epicondMed_l_tx	epicondMed_l_ty	epicondMed_l_tz	malleolusLat_r_tx	malleolusLat_r_ty	malleolusLat_r_tz	malleolusLat_l_tx	malleolusLat_l_ty	malleolusLat_l_tz	malleolusMedv_r_tx	malleolusMedv_r_ty	malleolusMedv_r_tz	malleolusMedv_l_tx	malleolusMedv_l_ty	malleolusMedv_l_tz	neck_tx	neck_ty	neck_tz	subclavicle_r_tx	subclavicle_r_ty	subclavicle_r_tz	subclavicle_l_tx	subclavicle_l_ty	subclavicle_l_tz	sternalnotch_tx	sternalnotch_ty	sternalnotch_tz	xyphoidprocess_tx	xyphoidprocess_ty	xyphoidprocess_tz	thighwand_r_tx	thighwand_r_ty	thighwand_r_tz	thighwand_l_tx	thighwand_l_ty	thighwand_l_tz	upperleg1_r_tx	upperleg1_r_ty	upperleg1_r_tz	upperleg1_l_tx	upperleg1_l_ty	upperleg1_l_tz	upperleg2_r_tx	upperleg2_r_ty	upperleg2_r_tz	upperleg2_l_tx	upperleg2_l_ty	upperleg2_l_tz	shankwand_r_tx	shankwand_r_ty	shankwand_r_tz	shankwand_l_tx	shankwand_l_ty	shankwand_l_tz	lowerleg1_r_tx	lowerleg1_r_ty	lowerleg1_r_tz	lowerleg1_l_tx	lowerleg1_l_ty	lowerleg1_l_tz	toe_r_tx	toe_r_ty	toe_r_tz	toe_l_tx	toe_l_ty	toe_l_tz	ground_force_vx	ground_force_vy	ground_force_vz	ground_force_px	ground_force_py	ground_force_pz	ground_force_vx	ground_force_vy	ground_force_vz	ground_force_px	ground_force_py	ground_force_pz	ground_torque_x	ground_torque_y	ground_torque_z	ground_torque_x	ground_torque_y	ground_torque_z	ground_marker_px	ground_marker_py	ground_marker_pz	ground_marker_px	ground_marker_py	ground_marker_pz	ground_marker_px	ground_marker_py	ground_marker_pz	ground_marker_px	ground_marker_py	ground_marker_pz	ground_marker_px	ground_marker_py	ground_marker_pz	ground_marker_px	ground_marker_py	ground_marker_pz	ground_marker_px	ground_marker_py	ground_marker_pz	ground_marker_px	ground_marker_py	ground_marker_pz	ground_marker_px	ground_marker_py	ground_marker_pz	ground_marker_px	ground_marker_py	ground_marker_pz	ground_marker_px	ground_marker_py	ground_marker_pz	ground_marker_px	ground_marker_py	ground_marker_pz	ground_marker_px	ground_marker_py	ground_marker_pz	ground_marker_px	ground_marker_py	ground_marker_pz	ground_marker_px	ground_marker_py	ground_marker_pz	ground_marker_px	ground_marker_py	ground_marker_pz	ground_marker_px	ground_marker_py	ground_marker_pz	ground_marker_px	ground_marker_py	ground_marker_pz	ground_marker_px	ground_marker_py	ground_marker_pz	ground_marker_px	ground_marker_py	ground_marker_pz	ground_marker_px	ground_marker_py	ground_marker_pz	ground_marker_px	ground_marker_py	ground_marker_pz	ground_marker_px	ground_marker_py	ground_marker_pz	ground_marker_px	ground_marker_py	ground_marker_pz	ground_marker_px	ground_marker_py	ground_marker_pz	ground_marker_px	ground_marker_py	ground_marker_pz	ground_marker_px	ground_marker_py	ground_marker_pz	ground_marker_px	ground_marker_py	ground_marker_pz	ground_marker_px	ground_marker_py	ground_marker_pz	ground_marker_px	ground_marker_py	ground_marker_pz	ground_marker_px	ground_marker_py	ground_marker_pz	ground_marker_px	ground_marker_py	ground_marker_pz	ground_marker_px	ground_marker_py	ground_marker_pz	ground_marker_px	ground_marker_py	ground_marker_pz	ground_marker_px	ground_marker_py	ground_marker_pz	ground_marker_px	ground_marker_py	ground_marker_pz	ground_marker_px	ground_marker_py	ground_marker_pz
      0.67500000	      0.55031144	      0.76890426	     -0.29699748	     -2.00985553	     -3.77705176	      2.37761441	     27.51907170	      4.26312357	      2.86856973	    -14.38132691	    -10.30688039	    -19.12794890	     -5.31741465	    -11.84535524	    -15.29367814	      4.71083944	      0.93365848	      4.76171174	    -10.56540563	      0.00000000	      0.00000000	      0.00000000	      0.00000000	      0.57440989	      0.77608831	     -0.19511721	      0.58285124	      0.75770690	     -0.40370178	      0.56175392	      0.76847137	     -0.29747189	      0.42285966	      0.81770402	     -0.27670057	      0.42121864	      0.81239211	     -0.33156608	      0.49362503	      0.72152785	     -0.22289081	      0.48764161	      0.71273455	     -0.35918372	      0.49063332	      0.71713120	     -0.29103727	      0.61729536	      0.38951847	     -0.17066007	      0.60886682	      0.39211300	     -0.27751181	      0.67878830	      0.54132621	     -0.13097190	      0.58799217	      0.56798829	     -0.15395153	      0.61409625	      0.48545130	     -0.17102737	      0.70182304	      0.06260674	     -0.18833618	      0.70738851	      0.06551440	     -0.24822124	      0.65984184	      0.16586357	     -0.11083740	      0.66855586	      0.13288535	     -0.18613971	      0.63494291	      0.41713622	     -0.23440014	      0.70127250	      0.07396985	     -0.23607083	      0.80678916	      0.03256304	     -0.21313013	      0.32418445	      0.41729637	     -0.40979776	      0.31231297	      0.36633597	     -0.27951404	      0.52850762	      0.45380181	     -0.41220456	      0.48804282	      0.54117973	     -0.42441907	      0.39593108	      0.44500407	     -0.37629552	      0.13476478	      0.12586582	     -0.39197295	      0.15672156	      0.10916528	     -0.34326622	      0.19290699	      0.23674241	     -0.46627549	      0.17749262	      0.19947060	     -0.39251200	      0.36426644	      0.40039132	     -0.36448769	      0.15808737	      0.11854593	     -0.34969119	      0.21264079	      0.04171488	     -0.41526882	      0.51858464	      1.13031861	     -0.24245307	      0.52989304	      1.14175450	     -0.31592795	      0.41817476	      1.17837329	     -0.30301191	      0.51066979	      1.13343109	     -0.28311022	      0.55017232	      1.05600452	     -0.28664418	      0.50304700	      0.71827700	     -0.28534700	      0.48902000	      0.71436800	     -0.22143500	      0.48121100	      0.70659500	     -0.35128400	      0.63743300	      0.40089400	     -0.23758500	      0.36685200	      0.40720700	     -0.35414400	      0.70360100	      0.06702300	     -0.23554800	      0.14922900	      0.11531500	     -0.36047900	      0.55515000	      0.77917400	     -0.29468300	      0.56119100	      0.78518700	     -0.19423200	      0.54910900	      0.77316100	     -0.39513400	      0.39812200	      0.82075000	     -0.25371500	      0.39503200	      0.81768700	     -0.30863200	      0.64496200	      0.40165200	     -0.18310800	      0.35478600	      0.41232100	     -0.40704500	      0.63133200	      0.39940500	     -0.28062400	      0.37272600	      0.38408000	     -0.30419600	      0.70238400	      0.06701100	     -0.19806800	      0.14143500	      0.12189800	     -0.39604500	      0.70785300	      0.06773600	     -0.26019300	      0.15040000	      0.11780700	     -0.33000300	      0.41817800	      1.18424800	     -0.30182200	      0.52118800	      1.12681000	     -0.24475900	      0.53141700	      1.13197400	     -0.32087900	      0.51196000	      1.12785600	     -0.28626100	      0.54248800	      1.04645500	     -0.28524900	      0.69494000	      0.55056500	     -0.13938000	      0.54882400	      0.47885800	     -0.39585200	      0.59815500	      0.57096600	     -0.15591900	      0.49450000	      0.55870600	     -0.41103200	      0.63153800	      0.49440700	     -0.17420800	      0.45607400	      0.48119500	     -0.40491800	      0.68141200	      0.17373000	     -0.12116800	      0.22522700	      0.21808900	     -0.47021600	      0.68110200	      0.13887400	     -0.19631800	      0.18974900	      0.19286900	     -0.39821700	      0.80391300	      0.04069000	     -0.21513700	      0.21564600	      0.03962900	     -0.36807200	    -56.78860718	    281.09968536	    -16.95607887	      0.68502881	      0.00000000	     -0.22608360	     57.45022368	    173.49799270	      6.47645017	      0.21740889	      0.00000000	     -0.35857916	      0.00000000	     -0.27131738	      0.00000000	      0.00000000	     -0.00853024	      0.00000000	      0.50304651	      0.71827710	     -0.28534690	      0.48902008	      0.71436840	     -0.22143470	      0.48121101	      0.70659548	     -0.35128355	      0.63743275	      0.40089419	     -0.23758532	      0.36685240	      0.40720683	     -0.35414401	      0.70360142	      0.06702331	     -0.23554824	      0.14922932	      0.11531538	     -0.36047900	      0.55514967	      0.77917397	     -0.29468298	      0.56119078	      0.78518713	     -0.19423236	      0.54910862	      0.77316087	     -0.39513358	      0.39812195	      0.82075042	     -0.25371528	      0.39503184	      0.81768709	     -0.30863219	      0.64496207	      0.40165219	     -0.18310842	      0.35478580	      0.41232142	     -0.40704474	      0.63133210	      0.39940527	     -0.28062448	      0.37272641	      0.38407996	     -0.30419618	      0.70238400	      0.06701071	     -0.19806802	      0.14143498	      0.12189843	     -0.39604458	      0.70785254	      0.06773631	     -0.26019314	      0.15039979	      0.11780728	     -0.33000261	      0.41817772	      1.18424833	     -0.30182186	      0.52118778	      1.12680984	     -0.24475852	      0.53141743	      1.13197422	     -0.32087857	      0.51195973	      1.12785578	     -0.28626099	      0.54248816	      1.04645514	     -0.28524894	      0.69494033	      0.55056477	     -0.13938044	      0.54882389	      0.47885808	     -0.39585161	      0.59815472	      0.57096577	     -0.15591921	      0.49450007	      0.55870634	     -0.41103151	      0.63153756	      0.49440682	     -0.17420803	      0.45607370	      0.48119488	     -0.40491763	      0.68141246	      0.17372984	     -0.12116754	      0.22522710	      0.21808855	     -0.47021601	      0.68110192	      0.13887368	     -0.19631848	      0.18974863	      0.19286911	     -0.39821747	      0.80391300	      0.04069039	     -0.21513745	      0.21564573	      0.03962894	     -0.36807176
      0.68333000	      0.56056025	      0.76986058	     -0.29502690	     -1.85898164	     -3.92450615	      2.12431739	     27.13522622	      4.88747097	      4.52894859	    -15.60403535	     -9.33909083	    -18.80356775	     -5.75594155	    -11.59058634	    -17.19035049	      2.53922771	      0.67888618	      4.88204748	    -10.43334080	      0.00000000	      0.00000000	      0.00000000	      0.00000000	      0.58419668	      0.77739190	     -0.19306350	      0.59359389	      0.75846919	     -0.40155877	      0.57200589	      0.76946000	     -0.29545072	      0.43287971	      0.81834085	     -0.27541362	      0.43149156	      0.81287523	     -0.33027100	      0.50369260	      0.72251930	     -0.22103673	      0.49832451	      0.71333852	     -0.35732971	      0.50100856	      0.71792891	     -0.28918322	      0.62759078	      0.39037421	     -0.17022820	      0.61638435	      0.39242046	     -0.27683633	      0.69059816	      0.54218207	     -0.13299158	      0.59932135	      0.56903124	     -0.15374085	      0.62469896	      0.48631407	     -0.17103851	      0.70327809	      0.06189987	     -0.18720234	      0.70736918	      0.06419162	     -0.24723283	      0.66583764	      0.16677381	     -0.10954845	      0.67180290	      0.13299116	     -0.18476203	      0.64390314	      0.41758887	     -0.23459380	      0.70177612	      0.07289173	     -0.23500342	      0.80746235	      0.03081138	     -0.21416523	      0.33790774	      0.41670440	     -0.41060640	      0.32505372	      0.36524192	     -0.28061360	      0.54193174	      0.45492212	     -0.41068495	      0.50087045	      0.54199663	     -0.42307425	      0.40905253	      0.44490600	     -0.37624386	      0.14210474	      0.13066678	     -0.39332215	      0.16328463	      0.11361785	     -0.34439261	      0.20344794	      0.23985818	     -0.46754649	      0.18658554	      0.20322622	     -0.39377928	      0.37789819	      0.39972001	     -0.36499365	      0.16492343	      0.12294042	     -0.35083825	      0.21526627	      0.04186328	     -0.41464740	      0.52895576	      1.13100390	     -0.24112372	      0.54045494	      1.14236672	     -0.31458032	      0.42876335	      1.17916795	     -0.30195524	      0.52114156	      1.13409786	     -0.28180175	      0.56053240	      1.05660765	     -0.28518430	      0.51328100	      0.71873000	     -0.28294900	      0.49946500	      0.71522400	     -0.21937900	      0.49219400	      0.70690200	     -0.34922500	      0.64647000	      0.40112100	     -0.23696700	      0.38035000	      0.40635000	     -0.35396200	      0.70394700	      0.06651100	     -0.23583000	      0.15589600	      0.11982800	     -0.36119400	      0.56568700	      0.77993500	     -0.29262700	      0.57130700	      0.78636700	     -0.19226600	      0.56006700	      0.77350300	     -0.39298800	      0.40787500	      0.82116900	     -0.25282900	      0.40547800	      0.81799400	     -0.30780100	      0.65542800	      0.40227500	     -0.18271400	      0.36879600	      0.41148500	     -0.40697600	      0.64512400	      0.40109900	     -0.27993800	      0.38693100	      0.38249700	     -0.30277600	      0.70383400	      0.06661900	     -0.19833100	      0.14825500	      0.12671100	     -0.39673600	      0.70890800	      0.06709800	     -0.26055600	      0.15732500	      0.12227000	     -0.33083100	      0.42760000	      1.18464500	     -0.30096800	      0.53175400	      1.12755300	     -0.24320500	      0.54270600	      1.13291600	     -0.31929800	      0.52293700	      1.12857100	     -0.28483900	      0.55420100	      1.04745300	     -0.28362100	      0.70733600	      0.55238400	     -0.14086700	      0.56201000	      0.47934900	     -0.39359300	      0.61039600	      0.57251500	     -0.15529300	      0.50701200	      0.55859600	     -0.40896500	      0.64510000	      0.49638200	     -0.17387900	      0.46957100	      0.48074400	     -0.40307400	      0.68796700	      0.17351400	     -0.12114800	      0.23416200	      0.22094300	     -0.47089400	      0.68489200	      0.13866600	     -0.19630300	      0.19832100	      0.19643800	     -0.39875200	      0.80497600	      0.03913300	     -0.21530100	      0.21782900	      0.03990200	     -0.36791900	    -63.99710585	    306.54634872	    -20.97022165	      0.69153827	      0.00000000	     -0.22583713	     49.59410358	    137.23984864	      5.15207204	      0.21902943	      0.00000000	     -0.35806229	      0.00000000	     -0.29734204	      0.00000000	      0.00000000	      0.04144206	      0.00000000	      0.51328087	      0.71873009	     -0.28294897	      0.49946526	      0.71522391	     -0.21937853	      0.49219432	      0.70690233	     -0.34922463	      0.64646995	      0.40112051	     -0.23696722	      0.38034955	      0.40634954	     -0.35396239	      0.70394695	      0.06651127	     -0.23583041	      0.15589611	      0.11982786	     -0.36119390	      0.56568694	      0.77993500	     -0.29262722	      0.57130682	      0.78636700	     -0.19226599	      0.56006706	      0.77350307	     -0.39298844	      0.40787458	      0.82116860	     -0.25282937	      0.40547797	      0.81799364	     -0.30780080	      0.65542841	      0.40227517	     -0.18271399	      0.36879623	      0.41148457	     -0.40697566	      0.64512366	      0.40109909	     -0.27993777	      0.38693124	      0.38249722	     -0.30277634	      0.70383424	      0.06661931	     -0.19833073	      0.14825477	      0.12671094	     -0.39673591	      0.70890796	      0.06709762	     -0.26055622	      0.15732482	      0.12226976	     -0.33083084	      0.42759952	      1.18464458	     -0.30096826	      0.53175431	      1.12755251	     -0.24320543	      0.54270589	      1.13291609	     -0.31929794	      0.52293694	      1.12857091	     -0.28483886	      0.55420130	      1.04745293	     -0.28362137	      0.70733559	      0.55238450	     -0.14086698	      0.56200981	      0.47934908	     -0.39359286	      0.61039621	      0.57251507	     -0.15529323	      0.50701219	      0.55859601	     -0.40896526	      0.64510047	      0.49638203	     -0.17387941	      0.46957120	      0.48074353	     -0.40307415	      0.68796736	      0.17351404	     -0.12114820	      0.23416157	      0.22094308	     -0.47089398	      0.68489224	      0.13866648	     -0.19630347	      0.19832148	      0.19643827	     -0.39875227	      0.80497599	      0.03913331	     -0.21530053	      0.21782947	      0.03990246	     -0.36791936
      0.69167000	      0.57071183	      0.77090056	     -0.29325181	     -1.73521991	     -4.01362917	      1.94461733	     26.72048807	      5.40692724	      5.79688538	    -16.71871936	     -8.21828689	    -18.26397751	     -6.14378485	    -11.23801611	    -19.27069289	      0.00343774	      0.62573773	      4.89736813	    -10.48526497	      0.00000000	      0.00000000	      0.00000000	      0.00000000	      0.59401611	      0.77865625	     -0.19122879	      0.60410045	      0.75941213	     -0.39966253	      0.58215965	      0.77052652	     -0.29363975	      0.44285672	      0.81910914	     -0.27411177	      0.44165055	      0.81354977	     -0.32896404	      0.51372911	      0.72354618	     -0.21935862	      0.50880270	      0.71412789	     -0.35565208	      0.51126590	      0.71883703	     -0.28750535	      0.63716951	      0.39100268	     -0.17006441	      0.62380811	      0.39278359	     -0.27642872	      0.70158886	      0.54263706	     -0.13457798	      0.61002843	      0.56983221	     -0.15355106	      0.63468457	      0.48695169	     -0.17110829	      0.70441641	      0.06123713	     -0.18642503	      0.70736467	      0.06308208	     -0.24653786	      0.67101267	      0.16741891	     -0.10870710	      0.67468127	      0.13306746	     -0.18381006	      0.65251427	      0.41795186	     -0.23486852	      0.70222286	      0.07198329	     -0.23425524	      0.80805634	      0.02952758	     -0.21498468	      0.35238979	      0.41582637	     -0.41146385	      0.33876005	      0.36383524	     -0.28176075	      0.55594876	      0.45638927	     -0.40927540	      0.51401855	      0.54302179	     -0.42185153	      0.42283810	      0.44474301	     -0.37627068	      0.15039534	      0.13542338	     -0.39453048	      0.17081885	      0.11806656	     -0.34538809	      0.21485509	      0.24281829	     -0.46873478	      0.19660549	      0.20689414	     -0.39494961	      0.39237000	      0.39886176	     -0.36556175	      0.17272562	      0.12732151	     -0.35185742	      0.21802413	      0.04185612	     -0.41368964	      0.53830698	      1.13199892	     -0.23993533	      0.55008770	      1.14327249	     -0.31336106	      0.43829351	      1.17993202	     -0.30124187	      0.53065337	      1.13502317	     -0.28064911	      0.57016797	      1.05758461	     -0.28376008	      0.52366100	      0.71939600	     -0.28125600	      0.50978900	      0.71602700	     -0.21738300	      0.50291800	      0.70736000	     -0.34722800	      0.65505200	      0.40131500	     -0.23646500	      0.39458200	      0.40533100	     -0.35392500	      0.70414800	      0.06618500	     -0.23610200	      0.16358500	      0.12438600	     -0.36173500	      0.57606100	      0.78072100	     -0.29060200	      0.58136500	      0.78741200	     -0.19035700	      0.57075700	      0.77402900	     -0.39084700	      0.41785100	      0.82158700	     -0.25174200	      0.41575800	      0.81840200	     -0.30667300	      0.66511500	      0.40268200	     -0.18241100	      0.38352400	      0.41047500	     -0.40704300	      0.65037200	      0.40029900	     -0.27828400	      0.40140800	      0.38074000	     -0.30205700	      0.70489900	      0.06633600	     -0.19861000	      0.15603400	      0.13158200	     -0.39723500	      0.70962100	      0.06668300	     -0.26089500	      0.16531700	      0.12672900	     -0.33149600	      0.43708000	      1.18523100	     -0.30011000	      0.53982300	      1.12824600	     -0.24204500	      0.55353200	      1.13390400	     -0.31771400	      0.53252600	      1.12940800	     -0.28398900	      0.56383000	      1.04832200	     -0.28193000	      0.71887800	      0.55339900	     -0.14185900	      0.57562300	      0.48009800	     -0.39147100	      0.62167400	      0.57343100	     -0.15467400	      0.51995100	      0.55860500	     -0.40701000	      0.65453300	      0.49675800	     -0.17324900	      0.48347500	      0.48027800	     -0.40155600	      0.69351700	      0.17323700	     -0.12125200	      0.24380600	      0.22384100	     -0.47151700	      0.68808200	      0.13874000	     -0.19637500	      0.20787600	      0.20004600	     -0.39918300	      0.80575400	      0.03813600	     -0.21535100	      0.22028100	      0.04014600	     -0.36768000	    -69.61099789	    329.68224967	    -23.00569254	      0.69703497	      0.00000000	     -0.22588277	     39.52175410	    100.89269235	      3.81056839	      0.22112993	      0.00000000	     -0.35773041	      0.00000000	     -0.47293945	      0.00000000	      0.00000000	      0.05742543	      0.00000000	      0.52366078	      0.71939588	     -0.28125566	      0.50978875	      0.71602732	     -0.21738304	      0.50291818	      0.70735985	     -0.34722832	      0.65505153	      0.40131494	     -0.23646516	      0.39458176	      0.40533090	     -0.35392505	      0.70414758	      0.06618540	     -0.23610221	      0.16358508	      0.12438644	     -0.36173537	      0.57606089	      0.78072059	     -0.29060185	      0.58136517	      0.78741217	     -0.19035688	      0.57075655	      0.77402902	     -0.39084685	      0.41785115	      0.82158667	     -0.25174201	      0.41575843	      0.81840163	     -0.30667323	      0.66511506	      0.40268248	     -0.18241097	      0.38352385	      0.41047508	     -0.40704295	      0.65037203	      0.40029901	     -0.27828357	      0.40140796	      0.38073969	     -0.30205697	      0.70489913	      0.06633610	     -0.19861004	      0.15603369	      0.13158220	     -0.39723465	      0.70962131	      0.06668337	     -0.26089454	      0.16531660	      0.12672882	     -0.33149555	      0.43708012	      1.18523061	     -0.30010983	      0.53982288	      1.12824607	     -0.24204452	      0.55353159	      1.13390386	     -0.31771404	      0.53252596	      1.12940824	     -0.28398919	      0.56382984	      1.04832244	     -0.28192991	      0.71887815	      0.55339873	     -0.14185901	      0.57562262	      0.48009819	     -0.39147070	      0.62167388	      0.57343084	     -0.15467404	      0.51995081	      0.55860490	     -0.40700993	      0.65453315	      0.49675834	     -0.17324865	      0.48347533	      0.48027769	     -0.40155643	      0.69351655	      0.17323691	     -0.12125206	      0.24380615	      0.22384097	     -0.47151679	      0.68808216	      0.13873966	     -0.19637451	      0.20787551	      0.20004578	     -0.39918286	      0.80575407	      0.03813624	     -0.21535124	      0.22028105	      0.04014578	     -0.36767977
